# AST/ASF file generated using VICON BodyLanguage
# -----------------------------------------------
:version 1.10
:name VICON
:units
  mass 1.0
  length 0.45
  angle deg
:documentation
   .ast/.asf automatically generated from VICON data using
   VICON BodyBuilder and BodyLanguage model FoxedUp or BRILLIANT.MOD
:root
   order TX TY TZ RX RY RZ
   axis XYZ
   position 0 0 0  
   orientation 0 0 0 
:bonedata
  begin
     id 1 
     name lhipjoint
     direction 0.714689 -0.624256 0.315473 
     length 2.45343 
     axis 0 0 0  XYZ
  end
  begin
     id 2 
     name lfemur
     direction 0.34202 -0.939693 0  
     length 6.59069  
     axis 0 0 20  XYZ
    dof rx ry rz
    limits (-160.0 20.0)
           (-70.0 70.0)
           (-60.0 70.0)
  end
  begin
     id 3 
     name ltibia
     direction 0.34202 -0.939693 0   
     length 6.73476   
     axis 0 0 20   XYZ
    dof rx
    limits (-10.0 170.0)
  end
  begin
     id 4 
     name lfoot
     direction 0.0718085 -0.197292 0.977711   
     length 1.52607   
     axis -90 7.62852e-016 20   XYZ
    dof rx rz
    limits (-45.0 90.0)
           (-70.0 20.0)
  end
  begin
     id 5 
     name ltoes
     direction 1.53553e-011 -4.22024e-011 1   
     length 0.777832   
     axis -90 7.62852e-016 20   XYZ
    dof rx
    limits (-90.0 20.0)
  end
  begin
     id 6 
     name rhipjoint
     direction -0.727419 -0.612432 0.309497   
     length 2.50079  
     axis 0 0 0  XYZ 
  end
  begin
     id 7 
     name rfemur
     direction -0.34202 -0.939693 0   
     length 6.51665   
     axis 0 0 -20   XYZ
    dof rx ry rz
    limits (-160.0 20.0)
           (-70.0 70.0)
           (-70.0 60.0)
  end
  begin
     id 8 
     name rtibia
     direction -0.34202 -0.939693 0   
     length 6.48919   
     axis 0 0 -20   XYZ
    dof rx
    limits (-10.0 170.0)
 end
 begin
     id 9 
     name rfoot
     direction -0.112205 -0.308282 0.944655   
     length 1.68717  
     axis -90 -7.62852e-016 -20   XYZ
    dof rx rz
    limits (-45.0 90.0)
           (-20.0 70.0)
  end
  begin
     id 10 
     name rtoes
     direction -1.53583e-011 -4.21993e-011 1   
     length 0.846859   
     axis -90 -7.62852e-016 -20   XYZ
    dof rx
    limits (-90.0 20.0)
  end
  begin
     id 11 
     name lowerback
     direction -0.00119603 0.996364 -0.0851956   
     length 1.67242   
     axis 0 0 0   XYZ
    dof rx ry rz
    limits (-20.0 45.0)
           (-30.0 30.0)
           (-30.0 30.0)
  end
  begin
     id 12 
     name upperback
     direction -0.00531001 0.998318 0.0577248   
     length 1.64819   
     axis 0 0 0   XYZ
    dof rx ry rz
    limits (-20.0 45.0)
           (-30.0 30.0)
           (-30.0 30.0)
  end
  begin
     id 13 
     name thorax
     direction -0.00653676 0.995132 0.0983291   
     length 1.67429   
     axis 0 0 0   XYZ
    dof rx ry rz
    limits (-20.0 45.0)
           (-30.0 30.0)
           (-30.0 30.0)
  end
  begin
     id 14 
     name lowerneck
     direction 0.0141424 0.999886 0.00525412   
     length 1.59623   
     axis 0 0 0   XYZ
    dof rx ry rz
    limits (-20.0 45.0)
           (-30.0 30.0)
           (-30.0 30.0)
  end
  begin
     id 15 
     name upperneck
     direction -0.0640064 0.987178 -0.146232   
     length 1.59576   
     axis 0 0 0   XYZ
    dof rx ry rz
    limits (-20.0 45.0)
           (-30.0 30.0)
           (-30.0 30.0)
  end
  begin
     id 16
     name head
     direction -0.0222942 0.998496 -0.0500859  
     length 1.60959  
     axis 0 0 0   XYZ
    dof rx ry rz
    limits (-20.0 45.0)
           (-30.0 30.0)
           (-30.0 30.0)
  end
  begin
     id 17 
     name lclavicle
     direction 0.908549 0.392612 0.142806  
     length 2.80649  
     axis 0 0 0   XYZ
    dof ry rz
    limits (-20.0 10.0)
           (0.0 20.0)
  end
  begin
     id 18 
     name lhumerus
     direction 1 -4.48968e-011 1.08832e-028   
     length 4.2884   
     axis -180 -30 -90   XYZ
    dof rx ry rz
    limits (-60.0 90.0)
           (-90.0 90.0)
           (-90.0 90.0)
  end
  begin
     id 19
     name lradius
     direction 1 -4.48952e-011 -3.02642e-028   
     length 3.06552   
     axis -180 -30 -90   XYZ
    dof rx
    limits (-10.0 170.0)
  end
  begin
     id 20
     name lwrist
     direction 1 -4.49014e-011 1.58672e-027   
     length 1.53276   
     axis -1.65735e-015 90 90   XYZ
    dof ry
    limits (-180.0 0.0)
 end
  begin
     id 21 
     name lhand
     direction 1 -4.48928e-011 3.17344e-027   
     length 0.753045   
     axis -2.02492e-015 90 90   XYZ
    dof rx rz
    limits (-90.0 90.0)
           (-45.0 45.0)
  end
  begin
     id 22 
     name lfingers
     direction 1 -4.48958e-011 6.34687e-027   
     length 0.607124   
     axis -4.04985e-015 90 90   XYZ
    dof rx
    limits (0.0 90.0)
  end
  begin
     id 23
     name lthumb
     direction 0.707107 -6.34905e-011 0.707107   
     length 0.871712   
     axis -90 45 2.85299e-015   XYZ
    dof rx rz
    limits (-45.0 45.0)
           (-45.0 45.0)
  end
  begin
     id 24 
     name rclavicle
     direction -0.885098 0.45949 0.0739604   
     length 2.9478  
     axis 0 0 0   XYZ 
    dof ry rz
    limits (-10.0 20.0)
           (-20.0 0.0)
  end
  begin
     id 25 
     name rhumerus
     direction -1 -4.4898e-011 -2.61739e-027  
     length 4.52172   
     axis -180 30 90   XYZ
    dof rx ry rz
    limits (-90.0 60.0)
           (-90.0 90.0)
           (-90.0 90.0)
  end
  begin
     id 26 
     name rradius
     direction -1 -4.48945e-011 9.02552e-028   
     length 2.8914   
     axis -180 30 90   XYZ
    dof rx
    limits (-10.0 170.0)
  end
  begin
     id 27 
     name rwrist
     direction -1 -4.49018e-011 1.58672e-027   
     length 1.4457   
     axis -1.65735e-015 -90 -90   XYZ
    dof ry
    limits (-180.0 0.0)
  end
  begin
     id 28
     name rhand
     direction -1 -4.48825e-011 3.17344e-027   
     length 0.680541   
     axis -2.02492e-015 -90 -90   XYZ
    dof rx rz
    limits (-90.0 90.0)
           (-45.0 45.0)
  end
  begin
     id 29
     name rfingers
     direction -1 -4.49067e-011 6.34687e-027   
     length 0.54867   
     axis -4.04985e-015 -90 -90   XYZ
    dof rx
    limits (0.0 90.0)
  end
  begin
     id 30
     name rthumb
     direction -0.707107 -6.34833e-011 0.707107   
     length 0.787783   
     axis -90 -45 -2.85299e-015   XYZ
    dof rx rz
    limits (-45.0 45.0)
           (-45.0 45.0)
  end
:hierarchy
  begin
    root lhipjoint rhipjoint lowerback
    lhipjoint lfemur
    lfemur ltibia
    ltibia lfoot
    lfoot ltoes
    rhipjoint rfemur
    rfemur rtibia
    rtibia rfoot
    rfoot rtoes
    lowerback upperback
    upperback thorax
    thorax lowerneck lclavicle rclavicle
    lowerneck upperneck
    upperneck head
    lclavicle lhumerus
    lhumerus lradius
    lradius lwrist
    lwrist lhand lthumb
    lhand lfingers
    rclavicle rhumerus
    rhumerus rradius
    rradius rwrist
    rwrist rhand rthumb
    rhand rfingers
  end

#!OML:ASF E:\emotionWalksFemale\Project 1\Capture day 1\Session 1\Female1.ASF
:FULLY-SPECIFIED
:DEGREES
1
root 9.60648 15.6217 -10.3871 6.50705 1.11581 -0.496205
lowerback 9.82501 0.544143 0.744015
upperback -2.77543 0.847997 0.270434
thorax -8.46303 0.381351 -0.276316
lowerneck -5.6274 -3.45337 -6.18575
upperneck 4.33419 -4.43714 5.45314
head 2.69619 -2.15363 2.70102
rclavicle -1.31695e-015 -2.88238e-015
rhumerus -46.7739 12.9644 -89.2789
rradius 35.5082
rwrist 26.7287
rhand -16.4297 -54.686
rfingers 7.12502
rthumb 9.78565 -84.4387
lclavicle -1.31695e-015 -2.88238e-015
lhumerus -44.7113 1.80003 78.0824
lradius 33.7995
lwrist -10.9409
lhand -10.78 -38.613
lfingers 7.12502
lthumb 15.2324 -9.19381
rfemur -9.85617 12.4488 25.9481
rtibia 20.4594
rfoot -14.7469 -26.6906
rtoes -5.37043
lfemur -15.6032 -11.2111 -22.4889
ltibia 28.5357
lfoot -21.0678 13.2018
ltoes -34.1259
2
root 9.60411 15.6133 -10.3906 6.69464 1.06585 -0.419591
lowerback 9.908 0.569372 0.6728
upperback -2.73885 0.869599 0.229972
thorax -8.47185 0.394329 -0.283526
lowerneck -5.77257 -3.51835 -5.92677
upperneck 4.16178 -4.51698 5.20724
head 2.65206 -2.19362 2.56284
rclavicle -6.80837e-015 -1.09332e-015
rhumerus -46.8172 13.045 -89.1712
rradius 35.3161
rwrist 26.7472
rhand -16.4451 -54.3067
rfingers 7.12502
rthumb 9.77071 -84.06
lclavicle -6.80837e-015 -1.09332e-015
lhumerus -45.1084 1.64994 77.8162
lradius 33.9657
lwrist -10.8782
lhand -10.807 -38.3288
lfingers 7.12502
lthumb 15.2064 -8.90765
rfemur -10.4637 12.1246 25.8205
rtibia 21.1872
rfoot -15.1561 -26.39
rtoes -5.26218
lfemur -15.965 -10.8728 -22.5396
ltibia 28.8407
lfoot -21.1714 12.8926
ltoes -33.9616
3
root 9.60127 15.6041 -10.395 6.8941 1.03225 -0.395342
lowerback 9.96497 0.542869 0.617017
upperback -2.65267 0.826953 0.234674
thorax -8.41294 0.377006 -0.239978
lowerneck -5.9382 -3.52277 -5.79209
upperneck 3.88998 -4.50701 5.03744
head 2.5798 -2.18864 2.47821
rclavicle 8.31168e-015 7.7526e-015
rhumerus -46.7097 13.2344 -89.069
rradius 35.1206
rwrist 26.7306
rhand -15.981 -54.3244
rfingers 7.12502
rthumb 10.2185 -84.0562
lclavicle 8.31168e-015 7.7526e-015
lhumerus -45.5002 1.44448 77.5897
lradius 34.2322
lwrist -10.7003
lhand -10.9489 -37.8639
lfingers 7.12502
lthumb 15.0697 -8.4324
rfemur -11.0306 11.885 25.7507
rtibia 21.7629
rfoot -15.3714 -26.1934
rtoes -5.40829
lfemur -16.4314 -10.586 -22.5289
ltibia 29.2567
lfoot -21.2845 12.7575
ltoes -34.5971
4
root 9.59771 15.5923 -10.3983 7.03035 1.05808 -0.450464
lowerback 10.0535 0.526542 0.687531
upperback -2.59443 0.813102 0.214082
thorax -8.40021 0.366163 -0.299801
lowerneck -5.94436 -3.52654 -5.74393
upperneck 3.6996 -4.5091 5.02086
head 2.51481 -2.18897 2.46305
rclavicle 8.52289e-015 -7.95139e-015
rhumerus -46.7332 13.1098 -88.9413
rradius 35.0008
rwrist 26.6415
rhand -15.2467 -54.3749
rfingers 7.12502
rthumb 10.9268 -84.0706
lclavicle 8.52289e-015 -7.95139e-015
lhumerus -45.7776 1.40401 77.2232
lradius 34.2399
lwrist -10.7712
lhand -11.2116 -37.7776
lfingers 7.12502
lthumb 14.8166 -8.32731
rfemur -11.4712 11.7257 25.796
rtibia 22.2701
rfoot -15.6568 -26.097
rtoes -5.53153
lfemur -16.8545 -10.3384 -22.434
ltibia 29.6716
lfoot -21.4472 12.6631
ltoes -35.2522
5
root 9.59253 15.5826 -10.4005 7.17054 1.13877 -0.513041
lowerback 10.261 0.534411 0.745727
upperback -2.61376 0.832727 0.203425
thorax -8.54053 0.371522 -0.349775
lowerneck -5.97792 -3.53781 -5.78024
upperneck 3.63995 -4.52347 5.12494
head 2.50701 -2.19323 2.5039
rclavicle 1.12251e-014 2.28602e-015
rhumerus -46.9474 13.0187 -88.8125
rradius 34.9613
rwrist 26.4611
rhand -14.8274 -54.181
rfingers 7.12502
rthumb 11.3312 -83.8549
lclavicle 1.12251e-014 2.28602e-015
lhumerus -45.9307 1.70178 76.7291
lradius 33.925
lwrist -11.2171
lhand -11.1287 -37.7246
lfingers 7.12502
lthumb 14.8965 -8.28023
rfemur -11.8501 11.5701 25.8708
rtibia 22.679
rfoot -15.9084 -26.0304
rtoes -5.54207
lfemur -17.2814 -10.1442 -22.3166
ltibia 30.1084
lfoot -21.6022 12.5553
ltoes -35.5835
6
root 9.58706 15.5758 -10.4039 7.36006 1.24998 -0.655418
lowerback 10.5052 0.512686 0.863285
upperback -2.61794 0.825803 0.24423
thorax -8.68612 0.362286 -0.374289
lowerneck -6.02169 -3.47944 -6.02377
upperneck 3.39846 -4.43473 5.47704
head 2.44999 -2.1421 2.67214
rclavicle -5.05658e-015 7.35503e-015
rhumerus -47.1775 13.1017 -88.684
rradius 35.0456
rwrist 26.3557
rhand -14.8032 -54.2167
rfingers 7.12502
rthumb 11.3545 -83.8893
lclavicle -5.05658e-015 7.35503e-015
lhumerus -46.1006 2.05667 76.2727
lradius 33.7835
lwrist -11.6076
lhand -10.463 -37.2578
lfingers 7.12502
lthumb 15.5377 -7.86206
rfemur -12.2951 11.3514 26.0264
rtibia 23.052
rfoot -15.9763 -25.949
rtoes -5.40164
lfemur -17.7624 -10.0313 -22.0825
ltibia 30.5396
lfoot -21.8112 12.3079
ltoes -35.2236
7
root 9.58405 15.57 -10.4058 7.51962 1.30894 -0.788839
lowerback 10.5961 0.474931 1.02541
upperback -2.52112 0.799821 0.267066
thorax -8.63249 0.342407 -0.437214
lowerneck -6.09475 -3.44132 -6.16515
upperneck 3.11492 -4.37093 5.70712
head 2.37768 -2.1048 2.77871
rclavicle -4.14963e-015 -1.43125e-014
rhumerus -47.2902 13.1769 -88.5379
rradius 35.1156
rwrist 26.3296
rhand -14.9475 -54.241
rfingers 7.12502
rthumb 11.2154 -83.9213
lclavicle -4.14963e-015 -1.43125e-014
lhumerus -46.2609 2.25365 75.9142
lradius 33.8088
lwrist -11.6926
lhand -9.81672 -36.4805
lfingers 7.12502
lthumb 16.1601 -7.13418
rfemur -12.7032 11.1333 26.1667
rtibia 23.4411
rfoot -16.1244 -25.7757
rtoes -4.94741
lfemur -18.195 -9.84108 -21.8874
ltibia 30.9454
lfoot -21.9759 12.0292
ltoes -34.9862
8
root 9.58239 15.5629 -10.4075 7.66897 1.31759 -0.78453
lowerback 10.7288 0.46509 1.07282
upperback -2.47609 0.791692 0.232141
thorax -8.65978 0.334844 -0.500804
lowerneck -6.1824 -3.50773 -6.00441
upperneck 2.98499 -4.45789 5.58886
head 2.34636 -2.14768 2.70286
rclavicle -5.36097e-015 -9.98893e-015
rhumerus -47.432 13.2277 -88.454
rradius 35.0698
rwrist 26.1915
rhand -15.0348 -54.1669
rfingers 7.12502
rthumb 11.1312 -83.8517
lclavicle -5.36097e-015 -9.98893e-015
lhumerus -46.4711 2.32934 75.5691
lradius 33.6502
lwrist -11.8269
lhand -9.97592 -36.6227
lfingers 7.12502
lthumb 16.0068 -7.264
rfemur -13.1341 11.0073 26.1413
rtibia 23.8933
rfoot -16.3424 -25.63
rtoes -4.81715
lfemur -18.5977 -9.61321 -21.8665
ltibia 31.3467
lfoot -22.0238 11.8244
ltoes -34.8331
9
root 9.57861 15.5531 -10.409 7.8298 1.36639 -0.766846
lowerback 10.9609 0.461564 1.04442
upperback -2.48983 0.784472 0.210654
thorax -8.80962 0.331013 -0.508981
lowerneck -6.12355 -3.56421 -5.89169
upperneck 2.74473 -4.5347 5.52581
head 2.25408 -2.18678 2.65676
rclavicle 8.71547e-015 6.36111e-015
rhumerus -47.6706 13.2743 -88.4095
rradius 34.9714
rwrist 26.2004
rhand -14.8546 -54.269
rfingers 7.12502
rthumb 11.305 -83.9444
lclavicle 8.71547e-015 6.36111e-015
lhumerus -46.815 2.30447 75.2352
lradius 33.4883
lwrist -11.9625
lhand -10.184 -37.2311
lfingers 7.12502
lthumb 15.8064 -7.85645
rfemur -13.6241 10.9238 26.1155
rtibia 24.464
rfoot -16.6072 -25.6026
rtoes -4.89095
lfemur -19.0144 -9.44897 -21.8354
ltibia 31.7582
lfoot -22.2414 11.5179
ltoes -34.1165
10
root 9.57189 15.5414 -10.4091 8.08143 1.42131 -0.745806
lowerback 11.0343 0.462604 0.96406
upperback -2.51053 0.774416 0.197899
thorax -8.87575 0.329488 -0.476325
lowerneck -5.79789 -3.5198 -5.97725
upperneck 2.26049 -4.47719 5.69297
head 2.03901 -2.15941 2.73466
rclavicle -1.39708e-014 -1.01877e-014
rhumerus -47.9572 13.2468 -88.3408
rradius 34.869
rwrist 26.3898
rhand -14.5142 -54.2473
rfingers 7.12502
rthumb 11.6332 -83.9044
lclavicle -1.39708e-014 -1.01877e-014
lhumerus -47.238 2.17296 74.9666
lradius 33.5218
lwrist -11.8837
lhand -9.8569 -37.0297
lfingers 7.12502
lthumb 16.1214 -7.6802
rfemur -14.2227 10.7467 26.0959
rtibia 25.1023
rfoot -16.9239 -25.48
rtoes -4.89182
lfemur -19.5365 -9.26346 -21.793
ltibia 32.176
lfoot -22.5326 11.2921
ltoes -34.1317
11
root 9.56622 15.5284 -10.4121 8.42214 1.41159 -0.709117
lowerback 11.0857 0.495344 0.88657
upperback -2.57453 0.805658 0.167973
thorax -8.97536 0.347012 -0.47127
lowerneck -5.49936 -3.43066 -6.07476
upperneck 1.82132 -4.3606 5.91517
head 1.8434 -2.10158 2.83603
rclavicle 5.72127e-015 2.88238e-015
rhumerus -48.2553 13.2572 -88.3214
rradius 34.8034
rwrist 26.2127
rhand -14.5573 -54.0878
rfingers 7.12502
rthumb 11.5917 -83.7473
lclavicle 5.72127e-015 2.88238e-015
lhumerus -47.6429 1.93352 74.8206
lradius 33.6434
lwrist -11.7671
lhand -10.1584 -36.9643
lfingers 7.12502
lthumb 15.8311 -7.5916
rfemur -14.949 10.4809 26.0339
rtibia 25.7416
rfoot -17.2063 -25.182
rtoes -4.97679
lfemur -20.1759 -9.06967 -21.7679
ltibia 32.6138
lfoot -22.6931 11.2433
ltoes -34.7423
12
root 9.56165 15.5157 -10.4143 8.65492 1.39695 -0.759166
lowerback 11.3119 0.528119 0.920149
upperback -2.5995 0.85644 0.158598
thorax -9.133 0.368232 -0.512606
lowerneck -5.63599 -3.41036 -6.07661
upperneck 1.70113 -4.32577 6.01764
head 1.83003 -2.08006 2.87121
rclavicle 5.75233e-015 -6.06293e-015
rhumerus -48.522 13.3622 -88.3469
rradius 34.7216
rwrist 25.9942
rhand -14.9909 -53.9858
rfingers 7.12502
rthumb 11.1736 -83.6683
lclavicle 5.75233e-015 -6.06293e-015
lhumerus -47.7979 1.92425 74.6414
lradius 33.4853
lwrist -11.9356
lhand -7.51837 -34.0045
lfingers 7.12502
lthumb 18.3722 -4.85207
rfemur -15.5544 10.3197 26.0809
rtibia 26.3955
rfoot -17.5628 -24.9968
rtoes -4.67922
lfemur -20.7221 -8.82841 -21.6764
ltibia 33.0508
lfoot -22.7321 11.317
ltoes -36.0518
13
root 9.55601 15.504 -10.4136 8.86465 1.39382 -0.798771
lowerback 11.4427 0.552165 0.890867
upperback -2.51014 0.887033 0.18235
thorax -9.11206 0.385641 -0.47756
lowerneck -6.1221 -3.47515 -5.93307
upperneck 1.71612 -4.39154 5.84253
head 1.9168 -2.10817 2.77686
rclavicle -3.05631e-015 -1.23246e-014
rhumerus -48.5876 13.5613 -88.3211
rradius 34.5855
rwrist 25.9646
rhand -14.9661 -53.9687
rfingers 7.12502
rthumb 11.1974 -83.6499
lclavicle -3.05631e-015 -1.23246e-014
lhumerus -47.8476 2.12342 74.3746
lradius 33.2173
lwrist -12.1761
lhand -9.85294 -36.3522
lfingers 7.12502
lthumb 16.1253 -7.00301
rfemur -16.1155 10.2319 26.1229
rtibia 27.0277
rfoot -17.8931 -24.9398
rtoes -4.31134
lfemur -21.2128 -8.55749 -21.6032
ltibia 33.4514
lfoot -22.8109 11.3006
ltoes -37.128
14
root 9.55009 15.4928 -10.4129 9.14874 1.37492 -0.670883
lowerback 11.4085 0.571087 0.657202
upperback -2.38888 0.876646 0.186083
thorax -8.96353 0.394449 -0.338526
lowerneck -6.2919 -3.49654 -5.8139
upperneck 1.36695 -4.40255 5.67761
head 1.8237 -2.11388 2.69593
rclavicle 3.15571e-015 -3.37934e-015
rhumerus -48.651 13.8976 -88.3428
rradius 34.61
rwrist 25.6551
rhand -14.7257 -53.9277
rfingers 7.12502
rthumb 11.4293 -83.5962
lclavicle 3.15571e-015 -3.37934e-015
lhumerus -48.2213 2.01449 74.2572
lradius 33.3167
lwrist -12.0435
lhand -9.84874 -36.3655
lfingers 7.12502
lthumb 16.1293 -7.01671
rfemur -16.727 10.0279 25.9753
rtibia 27.5994
rfoot -18.0794 -24.7811
rtoes -4.60217
lfemur -21.7169 -8.41657 -21.6928
ltibia 33.8337
lfoot -23.0387 11.0821
ltoes -36.7504
